<svg xmlns="http://www.w3.org/2000/svg" version="1.1" xmlns:xlink="http://www.w3.org/1999/xlink" xmlns:svgjs="http://svgjs.dev/svgjs" width="360" height="360"><rect width="360" height="360" fill="#faf3e8"></rect><g transform="matrix(1,0,0,1,30,30)"><g><g><path d="M0 100C0 44.7715 44.7715 0 100 0C100 55.2285 55.2285 100 0 100Z" style="opacity: .88;" fill="#222222"></path></g><g transform="matrix(1,0,0,1,100,0)"><path d="M0 100H100L0 0V100Z" style="opacity: .88;" fill="#f8d938"></path></g><g transform="matrix(1,0,0,1,200,0)"><path d="M0 100L0 0H100C100 55.2285 55.2285 100 0 100Z" style="opacity: .88;" fill="#fe4465"></path></g><g transform="matrix(1,0,0,1,0,100)"><path d="M0 100H100L0 0V100Z" style="opacity: .88;" fill="#1a49ef"></path></g><g transform="matrix(1,0,0,1,100,100)"><path d="M0 100L0 0H100C100 55.2285 55.2285 100 0 100Z" style="opacity: .88;" fill="#1a49ef"></path></g><g transform="matrix(1,0,0,1,200,100)"><path d="M100 0H0L100 100V0Z" style="opacity: .88;" fill="#f8d938"></path></g><g transform="matrix(1,0,0,1,0,200)"><path d="M50 100C50 72.3858 72.3858 50 100 50V100H50Z" style="opacity: .88;" fill="#fe4465"></path></g><g transform="matrix(1,0,0,1,100,200)"><path d="M100 100H0L100 0V100Z" style="opacity: .88;" fill="#f8d938"></path></g><g transform="matrix(1,0,0,1,200,200)"><path d="M0 100L0 0H100C100 55.2285 55.2285 100 0 100Z" style="opacity: .88;" fill="#f8d938"></path></g></g><g><g><path d="M50 0C50 27.6142 27.6142 50 0 50V0H50Z" style="opacity: .88;" fill="#fe4465"></path></g><g transform="matrix(1,0,0,1,100,0)"><path d="M0 100L0 0H100C100 55.2285 55.2285 100 0 100Z" style="opacity: .88;" fill="#1a49ef"></path></g><g transform="matrix(1,0,0,1,200,0)"><path d="M0 100L0 0H100C100 55.2285 55.2285 100 0 100Z" style="opacity: .88;" fill="#1a49ef"></path></g><g transform="matrix(1,0,0,1,0,100)"><path d="M0 0L0 100H100C100 44.7715 55.2285 0 0 0Z" style="opacity: .88;" fill="#fe4465"></path></g><g transform="matrix(1,0,0,1,100,100)"><circle r="20" cx="20" cy="20" style="opacity: .88;" transform="matrix(1,0,0,1,30,30)" fill="#f8d938"></circle></g><g transform="matrix(1,0,0,1,200,100)"><path d="M50 0C50 27.6142 72.3858 50 100 50V0H50Z" style="opacity: .88;" fill="#1a49ef"></path></g><g transform="matrix(1,0,0,1,0,200)"><path d="M0 100C0 44.7715 44.7715 0 100 0C100 55.2285 55.2285 100 0 100Z" style="opacity: .88;" fill="#f8d938"></path></g><g transform="matrix(1,0,0,1,100,200)"><path d="M0 0H100L0 100V0Z" style="opacity: .88;" fill="#1a49ef"></path></g><g transform="matrix(1,0,0,1,200,200)"><path d="M50 0C50 27.6142 27.6142 50 0 50V0H50Z" style="opacity: .88;" fill="#222222"></path></g></g><g><g><path d="M100 100H0L100 0V100Z" style="opacity: .88;" fill="#1a49ef"></path></g><g transform="matrix(1,0,0,1,100,0)"><path d="M0 0L0 100H100C100 44.7715 55.2285 0 0 0Z" style="opacity: .88;" fill="#fe4465"></path></g><g transform="matrix(1,0,0,1,200,0)"><path d="M50 100C50 72.3858 27.6142 50 0 50V100H50Z" style="opacity: .88;" fill="#f8d938"></path></g><g transform="matrix(1,0,0,1,0,100)"><path d="M0 0C0 55.2285 44.7715 100 100 100C100 44.7715 55.2285 0 0 0Z" style="opacity: .88;" fill="#f8d938"></path></g><g transform="matrix(1,0,0,1,100,100)"><path d="M100 0H0L100 100V0Z" style="opacity: .88;" fill="#f8d938"></path></g><g transform="matrix(1,0,0,1,200,100)"><path d="M100 0L100 100H0C0 44.7715 44.7715 0 100 0Z" style="opacity: .88;" fill="#fe4465"></path></g><g transform="matrix(1,0,0,1,0,200)"><path d="M50 100C50 72.3858 27.6142 50 0 50V100H50Z" style="opacity: .88;" fill="#222222"></path></g><g transform="matrix(1,0,0,1,100,200)"><path d="M100 100L100 0H0C0 55.2285 44.7715 100 100 100Z" style="opacity: .88;" fill="#fe4465"></path></g><g transform="matrix(1,0,0,1,200,200)"><path d="M0 100H100L0 0V100Z" style="opacity: .88;" fill="#1a49ef"></path></g><circle r="24.65" cx="0" cy="0" stroke-width="10" stroke="#faf3e8" fill="#faf3e8" transform="matrix(1,0,0,1,100,100)"></circle><circle r="24.65" cx="0" cy="0" stroke-width="10" stroke="#faf3e8" fill="#faf3e8" transform="matrix(1,0,0,1,300,300)"></circle></g></g></svg>